<svg width="10" height="10" viewBox="0 0 10 10" fill="none" xmlns="http://www.w3.org/2000/svg">
<g id="2849832_arrows_navigation_arrow_left_back_icon 2">
<g id="1">
<path id="Vector" d="M3.18126 8.63778C3.2182 8.63779 3.25478 8.63053 3.28892 8.61641C3.32305 8.60229 3.35407 8.58158 3.3802 8.55547L6.84688 5.08859C6.89961 5.03585 6.92923 4.96433 6.92923 4.88975C6.92923 4.81517 6.89961 4.74365 6.84688 4.69091L3.3802 1.22403C3.35408 1.19791 3.32308 1.17718 3.28896 1.16304C3.25484 1.14889 3.21826 1.14161 3.18132 1.1416C3.14439 1.14159 3.10781 1.14886 3.07368 1.16299C3.03955 1.17711 3.00854 1.19783 2.98241 1.22394C2.95629 1.25005 2.93556 1.28105 2.92142 1.31518C2.90728 1.3493 2.89999 1.38587 2.89998 1.42281C2.89998 1.45975 2.90724 1.49632 2.92137 1.53045C2.9355 1.56458 2.95621 1.59559 2.98232 1.62172L6.25026 4.88966L2.98232 8.15759C2.94296 8.19693 2.91615 8.24705 2.90529 8.30162C2.89443 8.3562 2.9 8.41277 2.9213 8.46418C2.94259 8.51558 2.97866 8.55952 3.02494 8.59042C3.07121 8.62132 3.12561 8.6378 3.18126 8.63778Z" fill="white"/>
</g>
</g>
</svg>
