<svg width="10" height="10" viewBox="0 0 10 10" fill="none" xmlns="http://www.w3.org/2000/svg">
<g id="2849832_arrows_navigation_arrow_left_back_icon 1">
<g id="1">
<path id="Vector" d="M6.81874 8.63778C6.7818 8.6378 6.74522 8.63054 6.71108 8.61641C6.67695 8.60229 6.64593 8.58158 6.6198 8.55547L3.15312 5.08859C3.10039 5.03585 3.07077 4.96433 3.07077 4.88975C3.07077 4.81517 3.10039 4.74365 3.15312 4.69091L6.6198 1.22403C6.64592 1.19791 6.67692 1.17718 6.71104 1.16304C6.74516 1.14889 6.78174 1.14161 6.81868 1.1416C6.85561 1.14159 6.89219 1.14886 6.92632 1.16299C6.96045 1.17711 6.99146 1.19783 7.01759 1.22394C7.04371 1.25005 7.06444 1.28105 7.07858 1.31518C7.09272 1.3493 7.10001 1.38587 7.10002 1.42281C7.10002 1.45975 7.09276 1.49632 7.07863 1.53045C7.0645 1.56458 7.04379 1.59559 7.01768 1.62172L3.74974 4.88966L7.01768 8.15759C7.05704 8.19693 7.08385 8.24705 7.09471 8.30162C7.10557 8.3562 7.1 8.41277 7.0787 8.46418C7.05741 8.51558 7.02134 8.55952 6.97506 8.59042C6.92879 8.62132 6.87439 8.6378 6.81874 8.63778Z" fill="#111111"/>
</g>
</g>
</svg>
